<svg width="80" height="80" viewBox="0 0 80 80" fill="none" xmlns="http://www.w3.org/2000/svg">
<g clip-path="url(#clip0_357_1269)">
<path d="M10 1.5H70C74.6944 1.5 78.5 5.30558 78.5 10V70C78.5 74.6944 74.6944 78.5 70 78.5H1.5V10C1.5 5.30558 5.30558 1.5 10 1.5Z" fill="white" stroke="#D9D9D9" stroke-width="3"/>
<path d="M25.6593 48H23.5633L23.5473 46.432C23.11 47.008 22.566 47.4507 21.9153 47.76C21.2646 48.0693 20.534 48.224 19.7233 48.224C18.55 48.224 17.5046 47.9573 16.5873 47.424C15.6806 46.88 14.9713 46.1333 14.4593 45.184C13.958 44.2347 13.7073 43.168 13.7073 41.984C13.7073 40.7787 13.9633 39.7067 14.4753 38.768C14.9873 37.8293 15.7073 37.0987 16.6353 36.576C17.5633 36.0427 18.6246 35.776 19.8193 35.776C21.2806 35.776 22.5233 36.1387 23.5473 36.864C24.5713 37.5787 25.2593 38.576 25.6113 39.856H22.6193C22.4166 39.3653 22.0806 38.976 21.6113 38.688C21.1526 38.3893 20.5713 38.24 19.8673 38.24C18.8326 38.24 18.0166 38.576 17.4193 39.248C16.8326 39.92 16.5393 40.8373 16.5393 42C16.5393 43.1733 16.8326 44.1067 17.4193 44.8C18.006 45.4827 18.822 45.824 19.8673 45.824C20.678 45.824 21.3606 45.6267 21.9153 45.232C22.47 44.8267 22.854 44.272 23.0673 43.568H20.1393V41.552H25.6593V48ZM30.3883 48C29.4816 48 28.799 47.776 28.3403 47.328C27.8816 46.88 27.6523 46.2453 27.6523 45.424V38.208H26.5483V36H30.3883V45.168C30.3883 45.552 30.5696 45.744 30.9323 45.744H31.7323V48H30.3883ZM37.0616 48.224C36.1869 48.224 35.4189 48.0427 34.7576 47.68C34.1069 47.3067 33.6056 46.7947 33.2536 46.144C32.9016 45.4827 32.7256 44.7253 32.7256 43.872C32.7256 43.0187 32.9016 42.2667 33.2536 41.616C33.6056 40.9547 34.1069 40.4427 34.7576 40.08C35.4189 39.7067 36.1869 39.52 37.0616 39.52C37.9362 39.52 38.6989 39.7067 39.3496 40.08C40.0109 40.4427 40.5176 40.9547 40.8696 41.616C41.2322 42.2667 41.4136 43.0187 41.4136 43.872C41.4136 44.7253 41.2322 45.4827 40.8696 46.144C40.5176 46.7947 40.0109 47.3067 39.3496 47.68C38.6989 48.0427 37.9362 48.224 37.0616 48.224ZM37.0616 45.856C37.6162 45.856 38.0482 45.68 38.3576 45.328C38.6669 44.976 38.8216 44.4907 38.8216 43.872C38.8216 43.264 38.6669 42.784 38.3576 42.432C38.0482 42.08 37.6162 41.904 37.0616 41.904C36.5069 41.904 36.0749 42.08 35.7656 42.432C35.4669 42.784 35.3176 43.264 35.3176 43.872C35.3176 44.4907 35.4669 44.976 35.7656 45.328C36.0749 45.68 36.5069 45.856 37.0616 45.856ZM47.8151 39.52C48.5404 39.52 49.1804 39.7013 49.7351 40.064C50.2897 40.4267 50.7164 40.9387 51.0151 41.6C51.3137 42.2507 51.4631 43.0027 51.4631 43.856C51.4631 44.72 51.3137 45.4827 51.0151 46.144C50.7164 46.8053 50.2897 47.3173 49.7351 47.68C49.1804 48.0427 48.5297 48.224 47.7831 48.224C46.8124 48.224 46.0711 47.9093 45.5591 47.28V48H42.9191V36H45.5591V40.464C46.1244 39.8347 46.8764 39.52 47.8151 39.52ZM47.1271 45.808C47.6497 45.808 48.0551 45.6427 48.3431 45.312C48.6417 44.9707 48.7911 44.4853 48.7911 43.856C48.7911 43.248 48.6417 42.7787 48.3431 42.448C48.0551 42.1173 47.6551 41.952 47.1431 41.952C46.4284 41.952 45.9004 42.2773 45.5591 42.928V44.832C45.7084 45.1307 45.9164 45.3707 46.1831 45.552C46.4497 45.7227 46.7644 45.808 47.1271 45.808ZM57.5743 39.744C58.5556 39.744 59.297 39.968 59.7983 40.416C60.3103 40.864 60.5663 41.5147 60.5663 42.368V48H57.9423V47.184C57.665 47.5253 57.3076 47.7867 56.8703 47.968C56.4436 48.1387 55.953 48.224 55.3983 48.224C54.5343 48.224 53.841 48 53.3183 47.552C52.7956 47.0933 52.5343 46.48 52.5343 45.712C52.5343 45.008 52.7636 44.432 53.2223 43.984C53.6916 43.536 54.3263 43.2747 55.1263 43.2L57.9423 42.912V42.64C57.9423 42.2133 57.7396 42 57.3343 42H53.2703V39.744H57.5743ZM56.2303 46.416C56.625 46.416 56.977 46.32 57.2863 46.128C57.6063 45.936 57.825 45.68 57.9423 45.36V44.56L56.0703 44.784C55.4623 44.8587 55.1583 45.136 55.1583 45.616C55.1583 45.872 55.249 46.0693 55.4303 46.208C55.6116 46.3467 55.8783 46.416 56.2303 46.416ZM65.0914 48C64.1848 48 63.5021 47.776 63.0434 47.328C62.5848 46.88 62.3554 46.2453 62.3554 45.424V38.208H61.2514V36H65.0914V45.168C65.0914 45.552 65.2728 45.744 65.6354 45.744H66.4354V48H65.0914Z" fill="#FF375E"/>
</g>
<defs>
<clipPath id="clip0_357_1269">
<rect width="80" height="80" fill="white"/>
</clipPath>
</defs>
</svg>
