<svg width="2496" height="2497" viewBox="0 0 2496 2497" fill="none" xmlns="http://www.w3.org/2000/svg">
<rect width="2496" height="2497" rx="556" fill="#240438"/>
<path d="M1692.47 1363.71C1684.7 1305.8 1656.67 1252.51 1613.33 1213.25C1543.68 1150.42 1461.33 1131.34 1370.24 1148.37C1309.05 1159.15 1254.01 1192.12 1215.69 1240.95C1178.78 1286.71 1158.78 1343.77 1159.06 1402.52C1158.28 1484.87 1158.83 1567.23 1158.83 1649.58C1158.83 1651.27 1159.01 1652.96 1159.1 1654.79L1293.55 1654.79L1293.55 1647.35C1293.61 1569.81 1293.71 1492.29 1293.84 1414.77C1293.76 1403.56 1294.54 1392.36 1296.18 1381.28C1298.47 1362.09 1305.08 1343.67 1315.53 1327.4C1325.97 1311.13 1339.98 1297.44 1356.49 1287.36C1381.22 1272.37 1410.18 1265.85 1438.96 1268.77C1459.39 1269.72 1479.28 1275.67 1496.86 1286.09C1514.45 1296.52 1529.2 1311.1 1539.82 1328.55C1554.82 1353.82 1562.22 1382.87 1561.15 1412.22L1561.15 1655.04L1696.15 1655.04L1696.15 1647.6C1696.15 1568.75 1696.34 1489.9 1695.98 1410.96C1695.98 1395.14 1694.8 1379.35 1692.47 1363.71V1363.71Z" fill="white"/>
<path d="M1296.73 1086.8L1310.14 1081.56C1309.32 1078.91 1308.77 1076.89 1308.07 1074.91C1297.55 1045.24 1270.65 968.462 1267.83 959.699L1267.31 959.461C1256.15 963.924 1244.96 968.075 1233.84 972.717C1123.58 1017.15 1035.35 1103.23 988.304 1212.24C960.703 1276.67 943.225 1344.95 936.487 1414.7C933.191 1445.32 926.855 1475.53 917.576 1504.9C903.569 1553.24 879.15 1597.94 846.028 1635.87C812.906 1673.8 771.881 1704.05 725.824 1724.49C715.393 1729.16 704.782 1733.12 693.754 1737.6C708.12 1778.04 722.441 1818.31 736.882 1858.91C740.965 1857.42 744.333 1856.28 747.821 1855.01C807.34 1834.43 861.913 1801.69 908.065 1758.9C954.217 1716.1 990.938 1664.18 1015.89 1606.44C1043.46 1542.1 1060.9 1473.89 1067.59 1404.22C1071.23 1369.87 1078.76 1336.04 1090.03 1303.38C1105.9 1254.06 1132.73 1208.96 1168.52 1171.45C1204.32 1133.94 1248.15 1105 1296.73 1086.8V1086.8Z" fill="white"/>
<path d="M820.868 1525.12C845.273 1472.63 852.278 1413.74 840.868 1357C835.262 1321.71 822.061 1288.06 802.174 1258.36C782.287 1228.65 756.187 1203.61 725.671 1184.94C690.938 1162.68 651.602 1148.57 610.619 1143.67C569.637 1138.78 528.076 1143.22 489.062 1156.67C452.482 1167.51 418.896 1186.62 390.913 1212.52C362.93 1238.42 341.303 1270.4 327.712 1306C308.215 1354.78 303.045 1408.1 312.809 1459.71C320.983 1510.46 344.557 1557.48 380.348 1594.43C404.303 1619.62 433.049 1639.78 464.905 1653.74C496.76 1667.7 531.085 1675.18 565.87 1675.74C593.67 1676.54 621.451 1673.56 648.446 1666.88C686.11 1657.94 721.227 1640.52 751.112 1615.94C780.996 1591.37 804.857 1560.31 820.868 1525.12V1525.12ZM710.5 1415.47C710.312 1448.67 698.396 1480.74 676.85 1506.03C663.482 1521.73 646.5 1533.97 627.359 1541.69C608.217 1549.41 587.487 1552.38 566.943 1550.35C535.897 1548.32 506.589 1535.32 484.282 1513.67C461.976 1492.01 448.131 1463.13 445.234 1432.21C444.235 1424.35 443.848 1416.42 443.192 1408.54C442.655 1376.95 452.224 1346.01 470.509 1320.22C482.392 1303.81 498.101 1290.54 516.277 1281.55C534.454 1272.56 554.55 1268.13 574.827 1268.64C599.205 1267.17 623.481 1272.86 644.665 1284.99C665.849 1297.12 683.014 1315.18 694.047 1336.93C706.561 1361.14 712.248 1388.28 710.5 1415.47V1415.47Z" fill="white"/>
<path d="M1916.73 638L1786.2 638L1786.2 1264.97L1916.73 1264.97L1916.73 638Z" fill="#FF00D2"/>
<path d="M2143.43 883.475C2071.22 911.482 1992.25 917.209 1916.74 899.915L1786.22 870.264C1697.5 851.627 1605.49 855.721 1518.78 882.166L1555.73 1007.14C1630.68 984.323 1710.55 983.003 1786.22 1003.33L1916.74 1032.34C1945.89 1037.28 1975.39 1039.82 2004.95 1039.93C2067.5 1039.5 2129.48 1027.99 2188 1005.95L2143.43 883.475Z" fill="#FF00D2"/>
</svg>
