<svg width="24" height="24" viewBox="0 0 24 24" fill="none" xmlns="http://www.w3.org/2000/svg">
<path fill-rule="evenodd" clip-rule="evenodd" d="M16.5 3.75C16.9125 3.75 17.25 4.0875 17.25 4.5V5.25H18C18.825 5.25 19.5 5.925 19.5 6.75V18.75C19.5 19.575 18.825 20.25 18 20.25H6C5.175 20.25 4.5 19.575 4.5 18.75V6.75C4.5 5.925 5.175 5.25 6 5.25H6.75V4.5C6.75 4.0875 7.0875 3.75 7.5 3.75C7.9125 3.75 8.25 4.0875 8.25 4.5V5.25H15.75V4.5C15.75 4.0875 16.0875 3.75 16.5 3.75ZM6 9V18C6 18.4125 6.3375 18.75 6.75 18.75H17.25C17.6625 18.75 18 18.4125 18 18V9H6Z" fill="#4F008C"/>
</svg>
