<svg width="568" height="160" viewBox="0 0 568 160" fill="none" xmlns="http://www.w3.org/2000/svg">
<g clip-path="url(#clip0_5_404)">
<path d="M568 143.961C568 146.069 567.577 148.156 566.755 150.103C565.932 152.05 564.727 153.819 563.209 155.308C561.69 156.798 559.886 157.979 557.902 158.784C555.918 159.589 553.791 160.002 551.643 160H16.3776C12.0393 160.004 7.87675 158.317 4.80547 155.31C1.73419 152.302 0.00565391 148.22 0 143.961V16.0595C0.00565131 11.799 1.7335 7.71493 4.80418 4.70392C7.87484 1.6929 12.0373 0.00110588 16.3776 0H551.639C553.788 -7.17287e-08 555.915 0.415421 557.9 1.22254C559.885 2.02965 561.688 3.21265 563.207 4.70396C564.726 6.19528 565.93 7.96569 566.752 9.91409C567.574 11.8625 567.996 13.9507 567.996 16.0595L568 143.961Z" fill="white"/>
<path d="M568 143.961C568 146.069 567.577 148.156 566.755 150.103C565.932 152.05 564.727 153.819 563.209 155.308C561.69 156.798 559.886 157.979 557.902 158.784C555.918 159.589 553.791 160.002 551.643 160H16.3776C12.0393 160.004 7.87675 158.317 4.80547 155.31C1.73419 152.302 0.00565391 148.22 0 143.961V16.0595C0.00565131 11.799 1.7335 7.71493 4.80418 4.70392C7.87484 1.6929 12.0373 0.00110588 16.3776 0H551.639C553.788 -7.17287e-08 555.915 0.415421 557.9 1.22254C559.885 2.02965 561.688 3.21265 563.207 4.70396C564.726 6.19528 565.93 7.96569 566.752 9.91409C567.574 11.8625 567.996 13.9507 567.996 16.0595L568 143.961Z" fill="black"/>
<path d="M124.734 79.1209C124.61 65.6242 135.992 59.058 136.512 58.7523C130.067 49.527 120.075 48.2666 116.565 48.1661C108.172 47.2992 100.033 53.0949 95.7583 53.0949C91.3983 53.0949 84.8157 48.2498 77.7211 48.3922C68.5916 48.5304 60.0508 53.7188 55.3666 61.7758C45.6996 78.2038 52.9093 102.345 62.1711 115.624C66.8041 122.132 72.2179 129.389 79.3039 129.133C86.2363 128.857 88.8258 124.799 97.1917 124.799C105.48 124.799 107.913 129.133 115.14 128.97C122.58 128.857 127.264 122.437 131.734 115.875C137.088 108.426 139.239 101.081 139.323 100.704C139.153 100.645 124.879 95.2934 124.734 79.1209ZM111.082 39.4307C114.811 34.8537 117.361 28.6267 116.654 22.3076C111.258 22.5421 104.508 25.9718 100.622 30.4483C97.1832 34.393 94.1116 40.8587 94.9051 46.9391C100.967 47.383 107.192 43.9366 111.082 39.4307Z" fill="white"/>
<path d="M225.145 128.199H215.456L210.149 111.83H191.702L186.647 128.199H177.215L195.495 72.4705H206.784L225.145 128.199ZM208.549 104.962L203.75 90.4102C203.242 88.9236 202.287 85.4227 200.887 79.9118H200.716C200.154 82.282 199.254 85.7829 198.021 90.4102L193.302 104.962H208.549ZM272.064 107.613C272.064 114.447 270.174 119.849 266.389 123.815C263.002 127.345 258.791 129.108 253.77 129.108C248.348 129.108 244.448 127.211 242.081 123.408V144.493H232.985V101.223C232.985 96.9303 232.871 92.5291 232.649 88.0149H240.648L241.155 94.3842H241.326C244.36 89.5852 248.963 87.1857 255.139 87.1857C259.969 87.1857 264 89.0576 267.226 92.8055C270.447 96.5618 272.064 101.495 272.064 107.613ZM262.797 107.939C262.797 104.028 261.901 100.804 260.101 98.2619C258.135 95.6195 255.494 94.2963 252.183 94.2963C249.939 94.2963 247.9 95.0333 246.079 96.4864C244.252 97.952 243.058 99.8658 242.499 102.236C242.25 103.122 242.108 104.035 242.076 104.954V111.658C242.076 114.577 242.99 117.043 244.815 119.062C246.642 121.072 249.014 122.081 251.931 122.081C255.357 122.081 258.023 120.779 259.93 118.195C261.842 115.603 262.797 112.186 262.797 107.939ZM319.149 107.613C319.149 114.447 317.259 119.849 313.475 123.815C310.083 127.345 305.876 129.108 300.851 129.108C295.428 129.108 291.53 127.211 289.162 123.408V144.493H280.067V101.223C280.067 96.9303 279.951 92.5291 279.73 88.0149H287.729L288.237 94.3842H288.407C291.436 89.5852 296.039 87.1857 302.221 87.1857C307.046 87.1857 311.077 89.0576 314.31 92.8055C317.527 96.5618 319.149 101.495 319.149 107.613ZM309.879 107.939C309.879 104.028 308.978 100.804 307.178 98.2619C305.211 95.6195 302.579 94.2963 299.269 94.2963C297.024 94.2963 294.985 95.0333 293.155 96.4864C291.329 97.952 290.139 99.8658 289.58 102.236C289.303 103.341 289.154 104.242 289.154 104.954V111.658C289.154 114.577 290.07 117.043 291.888 119.062C293.714 121.068 296.086 122.081 299.012 122.081C302.443 122.081 305.109 120.779 307.011 118.195C308.923 115.603 309.879 112.186 309.879 107.939ZM371.793 112.567C371.793 117.311 370.103 121.168 366.746 124.146C363.051 127.395 357.893 129.024 351.281 129.024C345.172 129.024 340.274 127.868 336.58 125.553L338.683 118.111C342.672 120.431 347.053 121.587 351.823 121.587C355.252 121.587 357.919 120.825 359.822 119.313C361.729 117.797 362.693 115.77 362.693 113.241C362.693 110.975 361.895 109.079 360.33 107.533C358.755 105.992 356.153 104.556 352.497 103.237C342.557 99.5978 337.582 94.2753 337.582 87.2737C337.582 82.7008 339.34 78.9571 342.847 76.0299C346.353 73.107 351.004 71.6455 356.789 71.6455C361.955 71.6455 366.259 72.5291 369.676 74.2921L367.394 81.5701C364.178 79.8616 360.547 79.0073 356.485 79.0073C353.278 79.0073 350.76 79.782 348.96 81.3231C347.445 82.7008 346.678 84.38 346.678 86.3733C346.678 88.5718 347.553 90.3976 349.293 91.8298C350.803 93.1489 353.56 94.5852 357.544 96.1262C362.433 98.0609 366.025 100.314 368.324 102.902C370.64 105.49 371.793 108.718 371.793 112.567ZM401.941 94.715H391.916V114.225C391.916 119.187 393.682 121.662 397.223 121.662C398.848 121.662 400.196 121.528 401.262 121.248L401.515 128.027C399.723 128.685 397.364 129.016 394.441 129.016C390.849 129.016 388.042 127.939 386.015 125.787C383.998 123.635 382.982 120.029 382.982 114.954V94.6983H377.01V87.9981H382.982V80.6405L391.916 77.9939V87.9981H401.941V94.715ZM447.085 107.776C447.085 113.953 445.285 119.024 441.693 122.99C437.934 127.073 432.935 129.108 426.702 129.108C420.687 129.108 415.904 127.152 412.337 123.245C408.771 119.33 406.988 114.397 406.988 108.446C406.988 102.219 408.831 97.1187 412.504 93.153C416.186 89.1832 421.143 87.1983 427.376 87.1983C433.383 87.1983 438.208 89.1581 441.859 93.0693C445.349 96.8633 447.085 101.763 447.085 107.776ZM437.657 107.981C437.657 104.3 436.846 101.143 435.221 98.5006C433.315 95.3097 430.584 93.7142 427.047 93.7142C423.404 93.7142 420.61 95.3097 418.707 98.5006C417.077 101.143 416.266 104.355 416.266 108.149C416.266 111.834 417.077 115 418.707 117.634C420.673 120.825 423.416 122.42 426.971 122.42C430.447 122.42 433.174 120.791 435.144 117.554C436.816 114.849 437.657 111.671 437.657 107.981ZM476.662 95.8666C475.716 95.699 474.757 95.6163 473.796 95.6195C470.596 95.6195 468.122 96.8004 466.381 99.179C464.871 101.273 464.111 103.919 464.111 107.115V128.199H455.016V100.67C455.024 96.4515 454.936 92.2335 454.751 88.019H462.674L463.007 95.7075H463.258C464.223 93.0651 465.732 90.9336 467.806 89.3381C469.703 87.944 472.009 87.189 474.38 87.1857C475.22 87.1857 475.98 87.2443 476.654 87.349L476.662 95.8666ZM517.34 106.206C517.363 107.563 517.252 108.919 517.007 110.255H489.721C489.823 114.225 491.145 117.265 493.68 119.359C495.979 121.227 498.953 122.165 502.604 122.165C506.645 122.165 510.331 121.537 513.646 120.268L515.07 126.461C511.197 128.12 506.623 128.945 501.346 128.945C494.998 128.945 490.015 127.11 486.389 123.45C482.771 119.786 480.958 114.862 480.958 108.693C480.958 102.638 482.644 97.5919 486.018 93.5676C489.551 89.2711 494.324 87.1229 500.33 87.1229C506.231 87.1229 510.697 89.2711 513.73 93.5676C516.132 96.9721 517.34 101.193 517.34 106.206ZM508.666 103.89C508.731 101.239 508.133 98.9571 506.9 97.0266C505.326 94.5391 502.904 93.2996 499.657 93.2996C496.683 93.2996 494.26 94.5098 492.417 96.9386C490.902 98.8691 490.002 101.189 489.725 103.882L508.666 103.89Z" fill="white"/>
<path d="M189.076 52.7675C186.546 52.7675 184.358 52.646 182.536 52.4408V25.4978C185.084 25.1115 187.659 24.921 190.236 24.9283C200.667 24.9283 205.471 29.966 205.471 38.1779C205.471 47.6502 199.797 52.7675 189.076 52.7675ZM190.603 28.383C189.195 28.383 187.997 28.4668 187.003 28.6678V49.1494C187.54 49.2331 188.573 49.2708 190.024 49.2708C196.857 49.2708 200.748 45.4517 200.748 38.2993C200.748 31.9216 197.229 28.383 190.603 28.383ZM220.44 52.9727C214.562 52.9727 210.753 48.6636 210.753 42.8135C210.753 36.7164 214.643 32.3696 220.773 32.3696C226.567 32.3696 230.462 36.4735 230.462 42.4911C230.462 48.6636 226.447 52.9727 220.44 52.9727ZM220.611 35.5774C217.382 35.5774 215.313 38.5422 215.313 42.6879C215.313 46.7541 217.424 49.7189 220.569 49.7189C223.712 49.7189 225.824 46.5489 225.824 42.6042C225.824 38.5841 223.755 35.5774 220.611 35.5774ZM263.985 32.7758L257.692 52.5246H253.593L250.985 43.9484C250.338 41.8506 249.798 39.722 249.369 37.5707H249.284C248.956 39.7231 248.332 41.8797 247.671 43.9484L244.898 52.5246H240.755L234.834 32.7758H239.429L241.707 42.1645C242.245 44.4006 242.697 46.5112 243.072 48.5045H243.158C243.486 46.842 244.023 44.765 244.813 42.2063L247.671 32.78H251.314L254.049 42.0053C254.71 44.2415 255.248 46.4358 255.666 48.5087H255.785C256.075 46.4777 256.532 44.3211 257.151 42.0053L259.595 32.78L263.985 32.7758ZM287.15 52.5246H282.679V41.1846C282.679 37.6921 281.314 35.9417 278.622 35.9417C275.972 35.9417 274.151 38.1779 274.151 40.7784V52.5246H269.68V38.4207C269.68 36.6745 269.638 34.8026 269.514 32.7717H273.447L273.656 35.8202H273.78C274.982 33.7097 277.423 32.3696 280.158 32.3696C284.381 32.3696 287.155 35.5397 287.155 40.6988L287.15 52.5246ZM299.479 52.5246H295.003V23.7139H299.479V52.5246ZM315.779 52.9727C309.905 52.9727 306.092 48.6636 306.092 42.8135C306.092 36.7164 309.982 32.3696 316.108 32.3696C321.906 32.3696 325.797 36.4735 325.797 42.4911C325.801 48.6636 321.782 52.9727 315.779 52.9727ZM315.946 35.5774C312.717 35.5774 310.648 38.5422 310.648 42.6879C310.648 46.7541 312.764 49.7189 315.899 49.7189C319.047 49.7189 321.155 46.5489 321.155 42.6042C321.159 38.5841 319.094 35.5774 315.946 35.5774ZM343.424 52.5246L343.101 50.2507H342.981C341.615 52.0807 339.623 52.9727 337.098 52.9727C333.493 52.9727 330.934 50.4936 330.934 47.1603C330.934 42.2859 335.237 39.765 342.691 39.765V39.4006C342.691 36.8001 341.287 35.4978 338.514 35.4978C336.53 35.4978 334.79 35.9877 333.259 36.9634L332.349 34.0782C334.21 32.9392 336.53 32.3696 339.256 32.3696C344.512 32.3696 347.165 35.0916 347.165 40.5397V47.8135C347.165 49.8068 347.255 51.3521 347.456 52.5288L343.424 52.5246ZM342.81 42.6879C337.845 42.6879 335.353 43.8688 335.353 46.6703C335.353 48.7432 336.637 49.7566 338.42 49.7566C340.694 49.7566 342.81 48.0522 342.81 45.7365V42.6879ZM368.876 52.5246L368.667 49.3546H368.543C367.259 51.7499 365.1 52.9727 362.085 52.9727C357.234 52.9727 353.641 48.7851 353.641 42.8931C353.641 36.7164 357.366 32.3655 362.451 32.3655C365.143 32.3655 367.051 33.2574 368.125 35.0497H368.215V23.7139H372.69V47.2021C372.69 49.1117 372.737 50.8998 372.856 52.5246H368.876ZM368.215 40.904C368.215 38.1402 366.351 35.7825 363.505 35.7825C360.191 35.7825 358.164 38.6678 358.164 42.7298C358.164 46.7122 360.267 49.4383 363.416 49.4383C366.227 49.4383 368.215 47.0388 368.215 44.1954V40.904ZM401.064 52.9727C395.189 52.9727 391.38 48.6636 391.38 42.8135C391.38 36.7164 395.271 32.3696 401.396 32.3696C407.195 32.3696 411.085 36.4735 411.085 42.4911C411.089 48.6636 407.075 52.9727 401.064 52.9727ZM401.231 35.5774C398.006 35.5774 395.936 38.5422 395.936 42.6879C395.936 46.7541 398.047 49.7189 401.188 49.7189C404.336 49.7189 406.444 46.5489 406.444 42.6042C406.452 38.5841 404.383 35.5774 401.231 35.5774ZM435.129 52.5246H430.653V41.1846C430.653 37.6921 429.288 35.9417 426.597 35.9417C423.948 35.9417 422.13 38.1779 422.13 40.7784V52.5246H417.655V38.4207C417.655 36.6745 417.612 34.8026 417.488 32.7717H421.422L421.631 35.8202H421.754C422.954 33.7097 425.398 32.3655 428.128 32.3655C432.351 32.3655 435.129 35.5355 435.129 40.6946V52.5246ZM465.209 36.0673H460.29V45.6569C460.29 48.0983 461.153 49.3169 462.892 49.3169C463.682 49.3169 464.343 49.2331 464.876 49.1117L465 52.445C464.135 52.7717 462.974 52.935 461.532 52.935C458.008 52.935 455.901 51.0254 455.901 46.0254V36.0673H452.966V32.7758H455.901V29.1578L460.29 27.8554V32.7717H465.209V36.0673ZM488.877 52.5246H484.411V41.2683C484.411 37.734 483.05 35.9459 480.354 35.9459C478.037 35.9459 475.879 37.4911 475.879 40.6192V52.5246H471.412V23.7139H475.879V35.5774H475.969C477.376 33.4249 479.415 32.3655 482.017 32.3655C486.275 32.3655 488.877 35.615 488.877 40.7784V52.5246ZM513.127 43.7055H499.709C499.795 47.445 502.316 49.5556 506.049 49.5556C508.033 49.5556 509.859 49.2289 511.471 48.6217L512.166 51.6703C510.264 52.4827 508.024 52.8889 505.418 52.8889C499.125 52.8889 495.4 48.9861 495.4 42.935C495.4 36.8797 499.215 32.3278 504.914 32.3278C510.055 32.3278 513.28 36.0673 513.28 41.7164C513.309 42.383 513.257 43.0507 513.127 43.7055ZM509.027 40.5774C509.027 37.5288 507.461 35.3763 504.603 35.3763C502.034 35.3763 500.003 37.5707 499.713 40.5774H509.027Z" fill="white"/>
</g>
<defs>
<clipPath id="clip0_5_404">
<rect width="568" height="160" fill="white"/>
</clipPath>
</defs>
</svg>
