<svg width="30" height="30" viewBox="0 0 30 30" fill="none" xmlns="http://www.w3.org/2000/svg">
<circle cx="15" cy="15" r="14.75" fill="#4F008C" stroke="#F3F3F1" stroke-width="0.5"/>
<path d="M22.3849 20.3158H6.61514C4.06579 20.3158 2 18.25 2 15.7006V14.6151C2 12.0658 4.06579 10 6.61514 10H22.3849C24.9342 10 27 12.0658 27 14.6151V15.7006C27 18.25 24.9342 20.3158 22.3849 20.3158Z" fill="black"/>
<path d="M21.087 15.5265V14.9804H20.5508V17.3258H21.087V16.2732V15.5265Z" fill="#00D1E8"/>
<path d="M17.4817 17.3455H18.8074V16.8093H11.6133V17.3455H16.735H17.4817Z" fill="#00D1E8"/>
<path d="M19.4164 15.4869C19.9296 15.4869 20.344 15.9047 20.344 16.4146C20.344 16.9277 19.9263 17.3422 19.4164 17.3422C19.3342 17.3422 19.2552 17.3323 19.1796 17.3126V16.7271C19.2454 16.7764 19.3276 16.806 19.4164 16.806C19.6335 16.806 19.8079 16.6317 19.8079 16.4146C19.8079 16.1975 19.6335 16.0231 19.4164 16.0231C19.1993 16.0231 19.025 16.1975 19.025 16.4146V18.1843H18.4888V16.4146C18.4855 15.9047 18.9032 15.4869 19.4164 15.4869Z" fill="#00D1E8"/>
<path d="M21.3088 15.5033H21.845V16.5559C21.845 16.6941 21.9569 16.8059 22.095 16.8059C22.2332 16.8059 22.345 16.6941 22.345 16.5559V15.5033H22.8812V16.5559C22.8812 16.9901 22.5293 17.3421 22.095 17.3421C21.6608 17.3421 21.3088 16.9901 21.3088 16.5559V15.5033Z" fill="#00D1E8"/>
<path d="M23.9529 16.1941H23.9134H23.6799C23.6305 16.1941 23.5911 16.1547 23.5911 16.1053C23.5911 16.056 23.6305 16.0165 23.6799 16.0165H24.6634V15.4803H23.8049C23.3937 15.4803 23.0911 15.6645 23.0911 16.0757C23.0911 16.4869 23.3641 16.6316 23.772 16.6316H23.8115H24.0779C24.1273 16.6316 24.1667 16.6711 24.1667 16.7204C24.1667 16.7698 24.1273 16.8092 24.0779 16.8092H23.0944V17.3455H23.92C24.3312 17.3455 24.6634 17.1612 24.6634 16.7501C24.6667 16.3422 24.3641 16.1941 23.9529 16.1941Z" fill="#00D1E8"/>
<path d="M15.2623 14.6907H14.7261V13.6381C14.7261 13.4999 14.6143 13.3881 14.4761 13.3881C14.338 13.3881 14.2261 13.4999 14.2261 13.6381V14.6907H13.6899V13.6381C13.6899 13.2039 14.0419 12.8519 14.4761 12.8519C14.9103 12.8519 15.2623 13.2039 15.2623 13.6381V14.6907Z" fill="white"/>
<path d="M24.67 12.9409H24.1338V14.6909H24.67V12.9409Z" fill="white"/>
<path d="M24.4 12.8092C24.578 12.8092 24.7224 12.6648 24.7224 12.4868C24.7224 12.3087 24.578 12.1644 24.4 12.1644C24.222 12.1644 24.0776 12.3087 24.0776 12.4868C24.0776 12.6648 24.222 12.8092 24.4 12.8092Z" fill="white"/>
<path d="M16.3534 12.8519C15.8403 12.8519 15.4258 13.2697 15.4258 13.7796C15.4258 14.2927 15.8435 14.7072 16.3534 14.7072C16.5804 14.7072 16.7449 14.6217 16.7449 14.6217C16.7449 14.8387 16.5705 15.0131 16.3534 15.0131V15.5493C16.8666 15.5493 17.281 15.1315 17.281 14.6217V13.7796C17.2843 13.2697 16.8666 12.8519 16.3534 12.8519ZM16.3534 14.1743C16.1363 14.1743 15.962 13.9999 15.962 13.7828C15.962 13.5657 16.1363 13.3914 16.3534 13.3914C16.5705 13.3914 16.7449 13.5657 16.7449 13.7828C16.7449 13.9967 16.5705 14.1743 16.3534 14.1743Z" fill="white"/>
<path d="M21.3076 14.6907H21.8438V13.6381C21.8438 13.4999 21.9557 13.3881 22.0938 13.3881C22.232 13.3881 22.3438 13.4999 22.3438 13.6381V14.6907H22.88V13.6381C22.88 13.4999 22.9918 13.3881 23.13 13.3881C23.2681 13.3881 23.3833 13.5032 23.3833 13.6381V14.6907H23.9195V13.6381C23.9195 13.2039 23.5675 12.8519 23.1333 12.8519C22.9359 12.8519 22.7517 12.9243 22.6136 13.046C22.4754 12.9243 22.2945 12.8519 22.0938 12.8519C21.6596 12.8519 21.3076 13.2039 21.3076 13.6381V14.6907Z" fill="white"/>
<path d="M17.4724 14.6909H18.0086V13.6383C18.0086 13.5001 18.1204 13.3883 18.2586 13.3883C18.3967 13.3883 18.5086 13.5001 18.5086 13.6383V14.6909H19.0448V13.6383C19.0448 13.2041 18.6928 12.8521 18.2586 12.8521C18.1698 12.8521 18.0876 12.8652 18.0086 12.8916V12.3422H17.4724V14.6909Z" fill="white"/>
<path d="M12.5409 12.8519C12.0278 12.8519 11.6133 13.2697 11.6133 13.7796C11.6133 14.2894 12.031 14.7072 12.5409 14.7072C12.6232 14.7072 12.7021 14.6973 12.7778 14.6776V14.0921C12.7119 14.1414 12.6297 14.171 12.5409 14.171C12.3238 14.171 12.1495 13.9967 12.1495 13.7796C12.1495 13.5624 12.3238 13.3881 12.5409 13.3881C12.758 13.3881 12.9324 13.5624 12.9324 13.7796V14.6907H13.4686V13.7796C13.4686 13.2697 13.0508 12.8519 12.5409 12.8519Z" fill="white"/>
<path d="M20.1588 12.8519C19.6457 12.8519 19.2312 13.2697 19.2312 13.7796C19.2312 14.2894 19.649 14.7072 20.1588 14.7072C20.2411 14.7072 20.32 14.6973 20.3957 14.6776V14.0921C20.3299 14.1414 20.2477 14.171 20.1588 14.171C19.9417 14.171 19.7674 13.9967 19.7674 13.7796C19.7674 13.5624 19.9417 13.3881 20.1588 13.3881C20.3759 13.3881 20.5503 13.5624 20.5503 13.7796V14.6907H21.0865V13.7796C21.0865 13.2697 20.672 12.8519 20.1588 12.8519Z" fill="white"/>
<path d="M8.42421 15.8159C8.22355 16.0988 7.89462 16.2699 7.53936 16.2699C6.93738 16.2699 6.44724 15.7798 6.44724 15.1778C6.44724 14.5758 6.93738 14.0857 7.53936 14.0857C8.14131 14.0857 8.63145 14.5758 8.63145 15.1778V17.7403L9.01961 17.8127V15.1778C9.01961 14.362 8.35513 13.6975 7.53936 13.6975C6.72356 13.6975 6.05908 14.362 6.05908 15.1778C6.05908 15.9936 6.72356 16.658 7.53936 16.658C7.86502 16.658 8.17421 16.5528 8.42421 16.3653V15.8159Z" fill="#00D1E8"/>
<path d="M8.42405 16.6123C8.16416 16.7702 7.86152 16.8623 7.53917 16.8623C6.61153 16.8623 5.85496 16.1057 5.85496 15.1781C5.85496 14.2505 6.61153 13.4939 7.53917 13.4939C8.46681 13.4939 9.22338 14.2505 9.22338 15.1781V17.8492L9.61154 17.9215V15.1781C9.61154 14.0367 8.68063 13.1058 7.53917 13.1058C6.39771 13.1058 5.4668 14.0367 5.4668 15.1781C5.4668 16.3196 6.39771 17.2505 7.53917 17.2505C7.85494 17.2505 8.15431 17.1814 8.42405 17.0531V16.6123Z" fill="#00D1E8"/>
<path d="M8.42459 17.2733C8.14827 17.3917 7.84562 17.4509 7.53971 17.4509C6.28314 17.4509 5.2634 16.4279 5.2634 15.1746C5.2634 13.9213 6.28641 12.8983 7.53971 12.8983C8.79628 12.8983 9.81604 13.9213 9.81604 15.1746V17.9575L10.2042 18.0299V15.1746C10.2042 13.7042 9.0101 12.5101 7.53971 12.5101C6.06931 12.5101 4.87524 13.7042 4.87524 15.1746C4.87524 16.645 6.06931 17.8391 7.53971 17.8391C7.84562 17.8391 8.14496 17.7864 8.42459 17.6878V17.2733Z" fill="#00D1E8"/>
<path d="M8.42428 17.9082C8.14469 18.0003 7.84532 18.0463 7.5394 18.0463C5.95717 18.0463 4.6677 16.7569 4.6677 15.1746C4.6677 13.5924 5.95717 12.3029 7.5394 12.3029C9.12163 12.3029 10.4111 13.5924 10.4111 15.1746V18.066L10.7993 18.1384V15.1746C10.7993 13.3785 9.33876 11.9147 7.5394 11.9147C5.74335 11.9147 4.27954 13.3753 4.27954 15.1746C4.27954 16.974 5.74008 18.4345 7.5394 18.4345C7.90124 18.4345 8.25322 18.3753 8.58219 18.2634C8.76638 18.2009 8.94071 18.1253 9.1085 18.0332L8.42428 17.9082Z" fill="#00D1E8"/>
</svg>
