<svg width="80" height="80" viewBox="0 0 80 80" fill="none" xmlns="http://www.w3.org/2000/svg">
<g clip-path="url(#clip0_357_1148)">
<path d="M10 1.5H70C74.6944 1.5 78.5 5.30558 78.5 10V70C78.5 74.6944 74.6944 78.5 70 78.5H1.5V10C1.5 5.30558 5.30558 1.5 10 1.5Z" fill="white" stroke="#D9D9D9" stroke-width="3"/>
<path d="M22.2232 52.91C22.2232 53.57 22.0899 54.1433 21.8232 54.63C21.5632 55.1167 21.1865 55.49 20.6932 55.75C20.2065 56.01 19.6365 56.14 18.9832 56.14C18.3299 56.14 17.7599 56.01 17.2732 55.75C16.7865 55.49 16.4099 55.1167 16.1432 54.63C15.8765 54.1433 15.7432 53.57 15.7432 52.91V48.5H17.4932V53.02C17.4932 53.4933 17.6265 53.8733 17.8932 54.16C18.1599 54.4467 18.5232 54.59 18.9832 54.59C19.4565 54.59 19.8232 54.4467 20.0832 54.16C20.3499 53.8733 20.4832 53.4933 20.4832 53.02V48.5H22.2232V52.91ZM26.6855 50.7C27.2322 50.7 27.6655 50.87 27.9855 51.21C28.3055 51.55 28.4655 52.01 28.4655 52.59V56H26.7555V53.12C26.7555 52.84 26.6889 52.62 26.5555 52.46C26.4222 52.3 26.2189 52.22 25.9455 52.22C25.7455 52.22 25.5522 52.2733 25.3655 52.38C25.1789 52.48 25.0355 52.61 24.9355 52.77V56H23.2355V50.84H24.9355V51.41C25.1489 51.1833 25.4055 51.01 25.7055 50.89C26.0122 50.7633 26.3389 50.7 26.6855 50.7ZM31.3218 56C30.7551 56 30.3285 55.86 30.0418 55.58C29.7551 55.3 29.6118 54.9033 29.6118 54.39V49.88H28.9218V48.5H31.3218V54.23C31.3218 54.47 31.4351 54.59 31.6618 54.59H32.1618V56H31.3218ZM33.4177 50.04V48.5H35.1177V50.04H33.4177ZM33.4177 52.25H32.4577V50.84H35.1177V56H33.4177V52.25ZM42.4538 50.7C42.9072 50.7 43.2638 50.8467 43.5238 51.14C43.7905 51.4333 43.9238 51.8267 43.9238 52.32V56H42.3638V53C42.3638 52.76 42.3038 52.57 42.1838 52.43C42.0705 52.29 41.8972 52.22 41.6638 52.22C41.5172 52.22 41.3738 52.26 41.2338 52.34C41.0938 52.4133 40.9738 52.5133 40.8738 52.64V56H39.3138V53C39.3138 52.76 39.2538 52.57 39.1338 52.43C39.0205 52.29 38.8472 52.22 38.6138 52.22C38.4538 52.22 38.2972 52.2633 38.1438 52.35C37.9972 52.4367 37.8772 52.55 37.7838 52.69V56H36.2238V50.84H37.7838V51.4C37.9905 51.18 38.2305 51.01 38.5038 50.89C38.7838 50.7633 39.0805 50.7 39.3938 50.7C39.7138 50.7 39.9872 50.7733 40.2138 50.92C40.4405 51.0667 40.6105 51.27 40.7238 51.53C40.9238 51.27 41.1772 51.0667 41.4838 50.92C41.7905 50.7733 42.1138 50.7 42.4538 50.7ZM45.6834 50.04V48.5H47.3834V50.04H45.6834ZM45.6834 52.25H44.7234V50.84H47.3834V56H45.6834V52.25ZM50.6995 56C50.0928 56 49.6361 55.86 49.3295 55.58C49.0228 55.3 48.8695 54.9033 48.8695 54.39V52.25H48.0595V50.84H48.8695V49.17H50.5695V50.84H51.9895V52.25H50.5695V54.19C50.5695 54.4567 50.6928 54.59 50.9395 54.59H51.9895V56H50.6995ZM58.0854 53.4C58.0854 53.5267 58.0787 53.65 58.0654 53.77H54.2554C54.3554 54.4967 54.7587 54.86 55.4654 54.86C55.6921 54.86 55.8854 54.8267 56.0454 54.76C56.2121 54.6867 56.3354 54.5967 56.4154 54.49H57.9954C57.9021 54.7967 57.7354 55.0767 57.4954 55.33C57.2554 55.5833 56.9554 55.7833 56.5954 55.93C56.2421 56.07 55.8487 56.14 55.4154 56.14C54.8687 56.14 54.3854 56.0267 53.9654 55.8C53.5521 55.5667 53.2321 55.2433 53.0054 54.83C52.7787 54.4167 52.6654 53.9367 52.6654 53.39C52.6654 52.87 52.7787 52.4067 53.0054 52C53.2321 51.5933 53.5521 51.2767 53.9654 51.05C54.3787 50.8167 54.8554 50.7 55.3954 50.7C55.9621 50.7 56.4487 50.8167 56.8554 51.05C57.2621 51.2833 57.5687 51.6033 57.7754 52.01C57.9821 52.4167 58.0854 52.88 58.0854 53.4ZM55.3954 51.94C54.8154 51.94 54.4521 52.2133 54.3054 52.76H56.4354C56.3754 52.48 56.2587 52.2733 56.0854 52.14C55.9187 52.0067 55.6887 51.94 55.3954 51.94ZM64.1673 48.5V56H62.5173V55.56C62.1906 55.9467 61.7306 56.14 61.1373 56.14C60.6706 56.14 60.2639 56.0267 59.9173 55.8C59.5706 55.5733 59.3039 55.2567 59.1173 54.85C58.9306 54.4367 58.8373 53.9567 58.8373 53.41C58.8373 52.8767 58.9306 52.4067 59.1173 52C59.3039 51.5867 59.5673 51.2667 59.9073 51.04C60.2539 50.8133 60.6539 50.7 61.1073 50.7C61.6939 50.7 62.1639 50.8933 62.5173 51.28V48.5H64.1673ZM61.5373 54.63C61.7639 54.63 61.9606 54.5767 62.1273 54.47C62.2939 54.3633 62.4239 54.2167 62.5173 54.03V52.83C62.3039 52.4233 61.9739 52.22 61.5273 52.22C61.2073 52.22 60.9539 52.3233 60.7673 52.53C60.5873 52.7367 60.4973 53.03 60.4973 53.41C60.4973 53.8033 60.5873 54.1067 60.7673 54.32C60.9539 54.5267 61.2106 54.63 61.5373 54.63Z" fill="#4F008C"/>
<path d="M30.1644 44H27.2824L27.2604 41.844C26.659 42.636 25.911 43.2447 25.0164 43.67C24.1217 44.0953 23.117 44.308 22.0024 44.308C20.389 44.308 18.9517 43.9413 17.6904 43.208C16.4437 42.46 15.4684 41.4333 14.7644 40.128C14.075 38.8227 13.7304 37.356 13.7304 35.728C13.7304 34.0707 14.0824 32.5967 14.7864 31.306C15.4904 30.0153 16.4804 29.0107 17.7564 28.292C19.0324 27.5587 20.4917 27.192 22.1344 27.192C24.1437 27.192 25.8524 27.6907 27.2604 28.688C28.6684 29.6707 29.6144 31.042 30.0984 32.802H25.9844C25.7057 32.1273 25.2437 31.592 24.5984 31.196C23.9677 30.7853 23.1684 30.58 22.2004 30.58C20.7777 30.58 19.6557 31.042 18.8344 31.966C18.0277 32.89 17.6244 34.1513 17.6244 35.75C17.6244 37.3633 18.0277 38.6467 18.8344 39.6C19.641 40.5387 20.763 41.008 22.2004 41.008C23.315 41.008 24.2537 40.7367 25.0164 40.194C25.779 39.6367 26.307 38.874 26.6004 37.906H22.5744V35.134H30.1644V44ZM48.3836 37.51C48.1783 38.8887 47.7163 40.0913 46.9976 41.118C46.279 42.1447 45.3403 42.9367 44.1816 43.494C43.0376 44.0367 41.7396 44.308 40.2876 44.308C38.6596 44.308 37.2076 43.9487 35.9316 43.23C34.6703 42.4967 33.6876 41.4847 32.9836 40.194C32.2796 38.8887 31.9276 37.4 31.9276 35.728C31.9276 34.0707 32.2796 32.5967 32.9836 31.306C33.6876 30.0007 34.6703 28.9887 35.9316 28.27C37.2076 27.5513 38.6596 27.192 40.2876 27.192C41.725 27.192 43.0156 27.456 44.1596 27.984C45.3036 28.512 46.235 29.2747 46.9536 30.272C47.687 31.2693 48.1636 32.4573 48.3836 33.836H44.4896C44.1816 32.824 43.683 32.0687 42.9936 31.57C42.319 31.0567 41.417 30.8 40.2876 30.8C38.909 30.8 37.8236 31.2473 37.0316 32.142C36.2396 33.022 35.8436 34.2247 35.8436 35.75C35.8436 37.2753 36.2396 38.4853 37.0316 39.38C37.8383 40.2747 38.9236 40.722 40.2876 40.722C41.4316 40.722 42.3556 40.4433 43.0596 39.886C43.7636 39.3287 44.255 38.5367 44.5336 37.51H48.3836ZM66.3231 37.51C66.1178 38.8887 65.6558 40.0913 64.9371 41.118C64.2184 42.1447 63.2798 42.9367 62.1211 43.494C60.9771 44.0367 59.6791 44.308 58.2271 44.308C56.5991 44.308 55.1471 43.9487 53.8711 43.23C52.6098 42.4967 51.6271 41.4847 50.9231 40.194C50.2191 38.8887 49.8671 37.4 49.8671 35.728C49.8671 34.0707 50.2191 32.5967 50.9231 31.306C51.6271 30.0007 52.6098 28.9887 53.8711 28.27C55.1471 27.5513 56.5991 27.192 58.2271 27.192C59.6644 27.192 60.9551 27.456 62.0991 27.984C63.2431 28.512 64.1744 29.2747 64.8931 30.272C65.6264 31.2693 66.1031 32.4573 66.3231 33.836H62.4291C62.1211 32.824 61.6224 32.0687 60.9331 31.57C60.2584 31.0567 59.3564 30.8 58.2271 30.8C56.8484 30.8 55.7631 31.2473 54.9711 32.142C54.1791 33.022 53.7831 34.2247 53.7831 35.75C53.7831 37.2753 54.1791 38.4853 54.9711 39.38C55.7778 40.2747 56.8631 40.722 58.2271 40.722C59.3711 40.722 60.2951 40.4433 60.9991 39.886C61.7031 39.3287 62.1944 38.5367 62.4731 37.51H66.3231Z" fill="#FF375E"/>
<path d="M10 1.5H70C74.6944 1.5 78.5 5.30558 78.5 10V70C78.5 74.6944 74.6944 78.5 70 78.5H1.5V10C1.5 5.30558 5.30558 1.5 10 1.5Z" fill="white" stroke="#D9D9D9" stroke-width="3"/>
<path d="M30.1644 44H27.2824L27.2604 41.844C26.659 42.636 25.911 43.2447 25.0164 43.67C24.1217 44.0953 23.117 44.308 22.0024 44.308C20.389 44.308 18.9517 43.9413 17.6904 43.208C16.4437 42.46 15.4684 41.4333 14.7644 40.128C14.075 38.8227 13.7304 37.356 13.7304 35.728C13.7304 34.0707 14.0824 32.5967 14.7864 31.306C15.4904 30.0153 16.4804 29.0107 17.7564 28.292C19.0324 27.5587 20.4917 27.192 22.1344 27.192C24.1437 27.192 25.8524 27.6907 27.2604 28.688C28.6684 29.6707 29.6144 31.042 30.0984 32.802H25.9844C25.7057 32.1273 25.2437 31.592 24.5984 31.196C23.9677 30.7853 23.1684 30.58 22.2004 30.58C20.7777 30.58 19.6557 31.042 18.8344 31.966C18.0277 32.89 17.6244 34.1513 17.6244 35.75C17.6244 37.3633 18.0277 38.6467 18.8344 39.6C19.641 40.5387 20.763 41.008 22.2004 41.008C23.315 41.008 24.2537 40.7367 25.0164 40.194C25.779 39.6367 26.307 38.874 26.6004 37.906H22.5744V35.134H30.1644V44ZM48.3836 37.51C48.1783 38.8887 47.7163 40.0913 46.9976 41.118C46.279 42.1447 45.3403 42.9367 44.1816 43.494C43.0376 44.0367 41.7396 44.308 40.2876 44.308C38.6596 44.308 37.2076 43.9487 35.9316 43.23C34.6703 42.4967 33.6876 41.4847 32.9836 40.194C32.2796 38.8887 31.9276 37.4 31.9276 35.728C31.9276 34.0707 32.2796 32.5967 32.9836 31.306C33.6876 30.0007 34.6703 28.9887 35.9316 28.27C37.2076 27.5513 38.6596 27.192 40.2876 27.192C41.725 27.192 43.0156 27.456 44.1596 27.984C45.3036 28.512 46.235 29.2747 46.9536 30.272C47.687 31.2693 48.1636 32.4573 48.3836 33.836H44.4896C44.1816 32.824 43.683 32.0687 42.9936 31.57C42.319 31.0567 41.417 30.8 40.2876 30.8C38.909 30.8 37.8236 31.2473 37.0316 32.142C36.2396 33.022 35.8436 34.2247 35.8436 35.75C35.8436 37.2753 36.2396 38.4853 37.0316 39.38C37.8383 40.2747 38.9236 40.722 40.2876 40.722C41.4316 40.722 42.3556 40.4433 43.0596 39.886C43.7636 39.3287 44.255 38.5367 44.5336 37.51H48.3836ZM66.3231 37.51C66.1178 38.8887 65.6558 40.0913 64.9371 41.118C64.2184 42.1447 63.2798 42.9367 62.1211 43.494C60.9771 44.0367 59.6791 44.308 58.2271 44.308C56.5991 44.308 55.1471 43.9487 53.8711 43.23C52.6098 42.4967 51.6271 41.4847 50.9231 40.194C50.2191 38.8887 49.8671 37.4 49.8671 35.728C49.8671 34.0707 50.2191 32.5967 50.9231 31.306C51.6271 30.0007 52.6098 28.9887 53.8711 28.27C55.1471 27.5513 56.5991 27.192 58.2271 27.192C59.6644 27.192 60.9551 27.456 62.0991 27.984C63.2431 28.512 64.1744 29.2747 64.8931 30.272C65.6264 31.2693 66.1031 32.4573 66.3231 33.836H62.4291C62.1211 32.824 61.6224 32.0687 60.9331 31.57C60.2584 31.0567 59.3564 30.8 58.2271 30.8C56.8484 30.8 55.7631 31.2473 54.9711 32.142C54.1791 33.022 53.7831 34.2247 53.7831 35.75C53.7831 37.2753 54.1791 38.4853 54.9711 39.38C55.7778 40.2747 56.8631 40.722 58.2271 40.722C59.3711 40.722 60.2951 40.4433 60.9991 39.886C61.7031 39.3287 62.1944 38.5367 62.4731 37.51H66.3231Z" fill="#FF375E"/>
<path d="M22.2232 52.91C22.2232 53.57 22.0899 54.1433 21.8232 54.63C21.5632 55.1167 21.1865 55.49 20.6932 55.75C20.2065 56.01 19.6365 56.14 18.9832 56.14C18.3299 56.14 17.7599 56.01 17.2732 55.75C16.7865 55.49 16.4099 55.1167 16.1432 54.63C15.8765 54.1433 15.7432 53.57 15.7432 52.91V48.5H17.4932V53.02C17.4932 53.4933 17.6265 53.8733 17.8932 54.16C18.1599 54.4467 18.5232 54.59 18.9832 54.59C19.4565 54.59 19.8232 54.4467 20.0832 54.16C20.3499 53.8733 20.4832 53.4933 20.4832 53.02V48.5H22.2232V52.91ZM26.6855 50.7C27.2322 50.7 27.6655 50.87 27.9855 51.21C28.3055 51.55 28.4655 52.01 28.4655 52.59V56H26.7555V53.12C26.7555 52.84 26.6889 52.62 26.5555 52.46C26.4222 52.3 26.2189 52.22 25.9455 52.22C25.7455 52.22 25.5522 52.2733 25.3655 52.38C25.1789 52.48 25.0355 52.61 24.9355 52.77V56H23.2355V50.84H24.9355V51.41C25.1489 51.1833 25.4055 51.01 25.7055 50.89C26.0122 50.7633 26.3389 50.7 26.6855 50.7ZM31.3218 56C30.7551 56 30.3285 55.86 30.0418 55.58C29.7551 55.3 29.6118 54.9033 29.6118 54.39V49.88H28.9218V48.5H31.3218V54.23C31.3218 54.47 31.4351 54.59 31.6618 54.59H32.1618V56H31.3218ZM33.4177 50.04V48.5H35.1177V50.04H33.4177ZM33.4177 52.25H32.4577V50.84H35.1177V56H33.4177V52.25ZM42.4538 50.7C42.9072 50.7 43.2638 50.8467 43.5238 51.14C43.7905 51.4333 43.9238 51.8267 43.9238 52.32V56H42.3638V53C42.3638 52.76 42.3038 52.57 42.1838 52.43C42.0705 52.29 41.8972 52.22 41.6638 52.22C41.5172 52.22 41.3738 52.26 41.2338 52.34C41.0938 52.4133 40.9738 52.5133 40.8738 52.64V56H39.3138V53C39.3138 52.76 39.2538 52.57 39.1338 52.43C39.0205 52.29 38.8472 52.22 38.6138 52.22C38.4538 52.22 38.2972 52.2633 38.1438 52.35C37.9972 52.4367 37.8772 52.55 37.7838 52.69V56H36.2238V50.84H37.7838V51.4C37.9905 51.18 38.2305 51.01 38.5038 50.89C38.7838 50.7633 39.0805 50.7 39.3938 50.7C39.7138 50.7 39.9872 50.7733 40.2138 50.92C40.4405 51.0667 40.6105 51.27 40.7238 51.53C40.9238 51.27 41.1772 51.0667 41.4838 50.92C41.7905 50.7733 42.1138 50.7 42.4538 50.7ZM45.6834 50.04V48.5H47.3834V50.04H45.6834ZM45.6834 52.25H44.7234V50.84H47.3834V56H45.6834V52.25ZM50.6995 56C50.0928 56 49.6361 55.86 49.3295 55.58C49.0228 55.3 48.8695 54.9033 48.8695 54.39V52.25H48.0595V50.84H48.8695V49.17H50.5695V50.84H51.9895V52.25H50.5695V54.19C50.5695 54.4567 50.6928 54.59 50.9395 54.59H51.9895V56H50.6995ZM58.0854 53.4C58.0854 53.5267 58.0787 53.65 58.0654 53.77H54.2554C54.3554 54.4967 54.7587 54.86 55.4654 54.86C55.6921 54.86 55.8854 54.8267 56.0454 54.76C56.2121 54.6867 56.3354 54.5967 56.4154 54.49H57.9954C57.9021 54.7967 57.7354 55.0767 57.4954 55.33C57.2554 55.5833 56.9554 55.7833 56.5954 55.93C56.2421 56.07 55.8487 56.14 55.4154 56.14C54.8687 56.14 54.3854 56.0267 53.9654 55.8C53.5521 55.5667 53.2321 55.2433 53.0054 54.83C52.7787 54.4167 52.6654 53.9367 52.6654 53.39C52.6654 52.87 52.7787 52.4067 53.0054 52C53.2321 51.5933 53.5521 51.2767 53.9654 51.05C54.3787 50.8167 54.8554 50.7 55.3954 50.7C55.9621 50.7 56.4487 50.8167 56.8554 51.05C57.2621 51.2833 57.5687 51.6033 57.7754 52.01C57.9821 52.4167 58.0854 52.88 58.0854 53.4ZM55.3954 51.94C54.8154 51.94 54.4521 52.2133 54.3054 52.76H56.4354C56.3754 52.48 56.2587 52.2733 56.0854 52.14C55.9187 52.0067 55.6887 51.94 55.3954 51.94ZM64.1673 48.5V56H62.5173V55.56C62.1906 55.9467 61.7306 56.14 61.1373 56.14C60.6706 56.14 60.2639 56.0267 59.9173 55.8C59.5706 55.5733 59.3039 55.2567 59.1173 54.85C58.9306 54.4367 58.8373 53.9567 58.8373 53.41C58.8373 52.8767 58.9306 52.4067 59.1173 52C59.3039 51.5867 59.5673 51.2667 59.9073 51.04C60.2539 50.8133 60.6539 50.7 61.1073 50.7C61.6939 50.7 62.1639 50.8933 62.5173 51.28V48.5H64.1673ZM61.5373 54.63C61.7639 54.63 61.9606 54.5767 62.1273 54.47C62.2939 54.3633 62.4239 54.2167 62.5173 54.03V52.83C62.3039 52.4233 61.9739 52.22 61.5273 52.22C61.2073 52.22 60.9539 52.3233 60.7673 52.53C60.5873 52.7367 60.4973 53.03 60.4973 53.41C60.4973 53.8033 60.5873 54.1067 60.7673 54.32C60.9539 54.5267 61.2106 54.63 61.5373 54.63Z" fill="#4F008C"/>
</g>
<defs>
<clipPath id="clip0_357_1148">
<rect width="80" height="80" fill="white"/>
</clipPath>
</defs>
</svg>
