<svg width="80" height="80" viewBox="0 0 80 80" fill="none" xmlns="http://www.w3.org/2000/svg">
<g clip-path="url(#clip0_357_1122)">
<path d="M10 1.5H70C74.6944 1.5 78.5 5.30558 78.5 10V70C78.5 74.6944 74.6944 78.5 70 78.5H1.5V10C1.5 5.30558 5.30558 1.5 10 1.5Z" fill="white" stroke="#D9D9D9" stroke-width="3"/>
<path d="M15.2232 63.91C15.2232 64.57 15.0899 65.1433 14.8232 65.63C14.5632 66.1167 14.1865 66.49 13.6932 66.75C13.2065 67.01 12.6365 67.14 11.9832 67.14C11.3299 67.14 10.7599 67.01 10.2732 66.75C9.78654 66.49 9.40987 66.1167 9.1432 65.63C8.87654 65.1433 8.7432 64.57 8.7432 63.91V59.5H10.4932V64.02C10.4932 64.4933 10.6265 64.8733 10.8932 65.16C11.1599 65.4467 11.5232 65.59 11.9832 65.59C12.4565 65.59 12.8232 65.4467 13.0832 65.16C13.3499 64.8733 13.4832 64.4933 13.4832 64.02V59.5H15.2232V63.91ZM19.6855 61.7C20.2322 61.7 20.6655 61.87 20.9855 62.21C21.3055 62.55 21.4655 63.01 21.4655 63.59V67H19.7555V64.12C19.7555 63.84 19.6889 63.62 19.5555 63.46C19.4222 63.3 19.2189 63.22 18.9455 63.22C18.7455 63.22 18.5522 63.2733 18.3655 63.38C18.1789 63.48 18.0355 63.61 17.9355 63.77V67H16.2355V61.84H17.9355V62.41C18.1489 62.1833 18.4055 62.01 18.7055 61.89C19.0122 61.7633 19.3389 61.7 19.6855 61.7ZM24.3218 67C23.7551 67 23.3285 66.86 23.0418 66.58C22.7551 66.3 22.6118 65.9033 22.6118 65.39V60.88H21.9218V59.5H24.3218V65.23C24.3218 65.47 24.4351 65.59 24.6618 65.59H25.1618V67H24.3218ZM26.4177 61.04V59.5H28.1177V61.04H26.4177ZM26.4177 63.25H25.4577V61.84H28.1177V67H26.4177V63.25ZM35.4538 61.7C35.9072 61.7 36.2638 61.8467 36.5238 62.14C36.7905 62.4333 36.9238 62.8267 36.9238 63.32V67H35.3638V64C35.3638 63.76 35.3038 63.57 35.1838 63.43C35.0705 63.29 34.8972 63.22 34.6638 63.22C34.5172 63.22 34.3738 63.26 34.2338 63.34C34.0938 63.4133 33.9738 63.5133 33.8738 63.64V67H32.3138V64C32.3138 63.76 32.2538 63.57 32.1338 63.43C32.0205 63.29 31.8472 63.22 31.6138 63.22C31.4538 63.22 31.2972 63.2633 31.1438 63.35C30.9972 63.4367 30.8772 63.55 30.7838 63.69V67H29.2238V61.84H30.7838V62.4C30.9905 62.18 31.2305 62.01 31.5038 61.89C31.7838 61.7633 32.0805 61.7 32.3938 61.7C32.7138 61.7 32.9872 61.7733 33.2138 61.92C33.4405 62.0667 33.6105 62.27 33.7238 62.53C33.9238 62.27 34.1772 62.0667 34.4838 61.92C34.7905 61.7733 35.1138 61.7 35.4538 61.7ZM38.6834 61.04V59.5H40.3834V61.04H38.6834ZM38.6834 63.25H37.7234V61.84H40.3834V67H38.6834V63.25ZM43.6995 67C43.0928 67 42.6361 66.86 42.3295 66.58C42.0228 66.3 41.8695 65.9033 41.8695 65.39V63.25H41.0595V61.84H41.8695V60.17H43.5695V61.84H44.9895V63.25H43.5695V65.19C43.5695 65.4567 43.6928 65.59 43.9395 65.59H44.9895V67H43.6995ZM51.0854 64.4C51.0854 64.5267 51.0787 64.65 51.0654 64.77H47.2554C47.3554 65.4967 47.7587 65.86 48.4654 65.86C48.6921 65.86 48.8854 65.8267 49.0454 65.76C49.2121 65.6867 49.3354 65.5967 49.4154 65.49H50.9954C50.9021 65.7967 50.7354 66.0767 50.4954 66.33C50.2554 66.5833 49.9554 66.7833 49.5954 66.93C49.2421 67.07 48.8487 67.14 48.4154 67.14C47.8687 67.14 47.3854 67.0267 46.9654 66.8C46.5521 66.5667 46.2321 66.2433 46.0054 65.83C45.7787 65.4167 45.6654 64.9367 45.6654 64.39C45.6654 63.87 45.7787 63.4067 46.0054 63C46.2321 62.5933 46.5521 62.2767 46.9654 62.05C47.3787 61.8167 47.8554 61.7 48.3954 61.7C48.9621 61.7 49.4487 61.8167 49.8554 62.05C50.2621 62.2833 50.5687 62.6033 50.7754 63.01C50.9821 63.4167 51.0854 63.88 51.0854 64.4ZM48.3954 62.94C47.8154 62.94 47.4521 63.2133 47.3054 63.76H49.4354C49.3754 63.48 49.2587 63.2733 49.0854 63.14C48.9187 63.0067 48.6887 62.94 48.3954 62.94ZM57.1673 59.5V67H55.5173V66.56C55.1906 66.9467 54.7306 67.14 54.1373 67.14C53.6706 67.14 53.2639 67.0267 52.9173 66.8C52.5706 66.5733 52.3039 66.2567 52.1173 65.85C51.9306 65.4367 51.8373 64.9567 51.8373 64.41C51.8373 63.8767 51.9306 63.4067 52.1173 63C52.3039 62.5867 52.5673 62.2667 52.9073 62.04C53.2539 61.8133 53.6539 61.7 54.1073 61.7C54.6939 61.7 55.1639 61.8933 55.5173 62.28V59.5H57.1673ZM54.5373 65.63C54.7639 65.63 54.9606 65.5767 55.1273 65.47C55.2939 65.3633 55.4239 65.2167 55.5173 65.03V63.83C55.3039 63.4233 54.9739 63.22 54.5273 63.22C54.2073 63.22 53.9539 63.3233 53.7673 63.53C53.5873 63.7367 53.4973 64.03 53.4973 64.41C53.4973 64.8033 53.5873 65.1067 53.7673 65.32C53.9539 65.5267 54.2106 65.63 54.5373 65.63Z" fill="#4F008C"/>
<path d="M65.9324 67H64.7534L64.7444 66.118C64.4984 66.442 64.1924 66.691 63.8264 66.865C63.4604 67.039 63.0494 67.126 62.5934 67.126C61.9334 67.126 61.3454 66.976 60.8294 66.676C60.3194 66.37 59.9204 65.95 59.6324 65.416C59.3504 64.882 59.2094 64.282 59.2094 63.616C59.2094 62.938 59.3534 62.335 59.6414 61.807C59.9294 61.279 60.3344 60.868 60.8564 60.574C61.3784 60.274 61.9754 60.124 62.6474 60.124C63.4694 60.124 64.1684 60.328 64.7444 60.736C65.3204 61.138 65.7074 61.699 65.9054 62.419H64.2224C64.1084 62.143 63.9194 61.924 63.6554 61.762C63.3974 61.594 63.0704 61.51 62.6744 61.51C62.0924 61.51 61.6334 61.699 61.2974 62.077C60.9674 62.455 60.8024 62.971 60.8024 63.625C60.8024 64.285 60.9674 64.81 61.2974 65.2C61.6274 65.584 62.0864 65.776 62.6744 65.776C63.1304 65.776 63.5144 65.665 63.8264 65.443C64.1384 65.215 64.3544 64.903 64.4744 64.507H62.8274V63.373H65.9324V67ZM70.8749 63.319C71.1869 63.457 71.4299 63.667 71.6039 63.949C71.7779 64.225 71.8649 64.543 71.8649 64.903C71.8649 65.323 71.7689 65.692 71.5769 66.01C71.3849 66.328 71.1089 66.574 70.7489 66.748C70.3949 66.916 69.9809 67 69.5069 67H66.8519V60.25H69.6329C70.2569 60.25 70.7489 60.409 71.1089 60.727C71.4749 61.045 71.6579 61.474 71.6579 62.014C71.6579 62.296 71.5889 62.551 71.4509 62.779C71.3129 63.007 71.1209 63.187 70.8749 63.319ZM70.2269 62.212C70.2269 61.99 70.1579 61.819 70.0199 61.699C69.8819 61.579 69.6839 61.519 69.4259 61.519H68.3279V62.896H69.4169C69.6629 62.896 69.8579 62.836 70.0019 62.716C70.1519 62.59 70.2269 62.422 70.2269 62.212ZM69.3539 65.74C69.6719 65.74 69.9239 65.662 70.1099 65.506C70.3019 65.344 70.3979 65.125 70.3979 64.849C70.3979 64.579 70.3079 64.372 70.1279 64.228C69.9479 64.078 69.6929 64.003 69.3629 64.003H68.3279V65.74H69.3539Z" fill="#FF375E"/>
<path d="M42.1088 8C48.7659 8 54.7935 10.6991 59.1561 15.0615C63.5186 19.4242 66.2175 25.4517 66.2175 32.1088C66.2175 38.7659 63.5186 44.7935 59.1558 49.1559C54.7935 53.5186 48.7659 56.2176 42.1088 56.2176C35.4517 56.2176 29.4241 53.5186 25.0615 49.1562C20.699 44.7935 18 38.7659 18 32.1088C18 25.4517 20.699 19.4242 25.0615 15.0615C29.4241 10.6991 35.4517 8 42.1088 8Z" fill="white"/>
<path d="M42.1087 10.0394C54.2972 10.0394 64.1781 19.9201 64.1781 32.1088C64.1781 44.2974 54.2972 54.1782 42.1087 54.1782C29.9199 54.1782 20.0393 44.2974 20.0393 32.1088C20.0393 19.9201 29.9199 10.0394 42.1087 10.0394Z" fill="#E30A17"/>
<path d="M44.5661 26.5211C42.7123 23.5936 39.4452 21.6494 35.7236 21.6494C29.9472 21.6494 25.2644 26.3322 25.2644 32.1088C25.2644 37.8853 29.9472 42.5681 35.7236 42.5681C39.4451 42.5681 42.7123 40.6241 44.5661 37.6965C43.0344 39.4027 40.8119 40.4762 38.3385 40.4762C33.7172 40.4762 29.971 36.7299 29.971 32.1088C29.971 27.4876 33.7172 23.7412 38.3385 23.7412C40.8119 23.7412 43.0344 24.815 44.5661 26.5211ZM44.0039 32.1088L53.4645 35.1827L47.6175 27.1351V37.0824L53.4645 29.0348L44.0039 32.1088Z" fill="white"/>
<path d="M10 1.5H70C74.6944 1.5 78.5 5.30558 78.5 10V70C78.5 74.6944 74.6944 78.5 70 78.5H1.5V10C1.5 5.30558 5.30558 1.5 10 1.5Z" fill="white" stroke="#D9D9D9" stroke-width="3"/>
<path d="M42.1088 8C48.7659 8 54.7935 10.6991 59.1561 15.0615C63.5186 19.4242 66.2175 25.4517 66.2175 32.1088C66.2175 38.7659 63.5186 44.7935 59.1558 49.1559C54.7935 53.5186 48.7659 56.2176 42.1088 56.2176C35.4517 56.2176 29.4241 53.5186 25.0615 49.1562C20.699 44.7935 18 38.7659 18 32.1088C18 25.4517 20.699 19.4242 25.0615 15.0615C29.4241 10.6991 35.4517 8 42.1088 8Z" fill="white"/>
<path d="M42.1087 10.0394C54.2972 10.0394 64.1781 19.9201 64.1781 32.1088C64.1781 44.2974 54.2972 54.1782 42.1087 54.1782C29.9199 54.1782 20.0393 44.2974 20.0393 32.1088C20.0393 19.9201 29.9199 10.0394 42.1087 10.0394Z" fill="#E30A17"/>
<path d="M44.5661 26.5211C42.7123 23.5936 39.4452 21.6494 35.7236 21.6494C29.9472 21.6494 25.2644 26.3322 25.2644 32.1088C25.2644 37.8853 29.9472 42.5681 35.7236 42.5681C39.4451 42.5681 42.7123 40.6241 44.5661 37.6965C43.0344 39.4027 40.8119 40.4762 38.3385 40.4762C33.7172 40.4762 29.971 36.7299 29.971 32.1088C29.971 27.4876 33.7172 23.7412 38.3385 23.7412C40.8119 23.7412 43.0344 24.815 44.5661 26.5211ZM44.0039 32.1088L53.4645 35.1827L47.6175 27.1351V37.0824L53.4645 29.0348L44.0039 32.1088Z" fill="white"/>
<path d="M10 1.5H70C74.6944 1.5 78.5 5.30558 78.5 10V70C78.5 74.6944 74.6944 78.5 70 78.5H1.5V10C1.5 5.30558 5.30558 1.5 10 1.5Z" fill="white" stroke="#D9D9D9" stroke-width="3"/>
<path d="M10 1.5H70C74.6944 1.5 78.5 5.30558 78.5 10V70C78.5 74.6944 74.6944 78.5 70 78.5H1.5V10C1.5 5.30558 5.30558 1.5 10 1.5Z" fill="white" stroke="#D9D9D9" stroke-width="3"/>
<rect x="20" y="21" width="40" height="28" rx="2" fill="white"/>
<mask id="mask0_357_1122" style="mask-type:luminance" maskUnits="userSpaceOnUse" x="20" y="21" width="40" height="28">
<rect x="20" y="21" width="40" height="28" rx="2" fill="white"/>
</mask>
<g mask="url(#mask0_357_1122)">
<rect x="20" y="21" width="40" height="28" fill="#E92434"/>
<path fill-rule="evenodd" clip-rule="evenodd" d="M47.1726 36.0757L45.4229 38.1547L45.5421 35.4623L42.9838 34.4739L45.6335 33.753L45.8021 31.0632L47.3205 33.31L49.983 32.636L48.2718 34.7455L49.7486 37.0188L47.1726 36.0757Z" fill="white"/>
<path d="M38.0952 26.6C40.8451 26.6 43.2914 27.87 44.8599 29.8431C43.6496 28.9813 42.1287 28.4662 40.4761 28.4662C36.5313 28.4663 33.3335 31.3922 33.3335 35.0004C33.3337 38.6084 36.5314 41.5335 40.4761 41.5336C42.1282 41.5336 43.6479 41.018 44.8579 40.1566C43.2894 42.1292 40.8447 43.3998 38.0952 43.3998C33.3615 43.3997 29.5241 39.6393 29.5239 35.0004C29.5239 30.3612 33.3614 26.6 38.0952 26.6Z" fill="white"/>
</g>
<path d="M22.2232 63.91C22.2232 64.57 22.0899 65.1433 21.8232 65.63C21.5632 66.1167 21.1865 66.49 20.6932 66.75C20.2065 67.01 19.6365 67.14 18.9832 67.14C18.3299 67.14 17.7599 67.01 17.2732 66.75C16.7865 66.49 16.4099 66.1167 16.1432 65.63C15.8765 65.1433 15.7432 64.57 15.7432 63.91V59.5H17.4932V64.02C17.4932 64.4933 17.6265 64.8733 17.8932 65.16C18.1599 65.4467 18.5232 65.59 18.9832 65.59C19.4565 65.59 19.8232 65.4467 20.0832 65.16C20.3499 64.8733 20.4832 64.4933 20.4832 64.02V59.5H22.2232V63.91ZM26.6855 61.7C27.2322 61.7 27.6655 61.87 27.9855 62.21C28.3055 62.55 28.4655 63.01 28.4655 63.59V67H26.7555V64.12C26.7555 63.84 26.6889 63.62 26.5555 63.46C26.4222 63.3 26.2189 63.22 25.9455 63.22C25.7455 63.22 25.5522 63.2733 25.3655 63.38C25.1789 63.48 25.0355 63.61 24.9355 63.77V67H23.2355V61.84H24.9355V62.41C25.1489 62.1833 25.4055 62.01 25.7055 61.89C26.0122 61.7633 26.3389 61.7 26.6855 61.7ZM31.3218 67C30.7551 67 30.3285 66.86 30.0418 66.58C29.7551 66.3 29.6118 65.9033 29.6118 65.39V60.88H28.9218V59.5H31.3218V65.23C31.3218 65.47 31.4351 65.59 31.6618 65.59H32.1618V67H31.3218ZM33.4177 61.04V59.5H35.1177V61.04H33.4177ZM33.4177 63.25H32.4577V61.84H35.1177V67H33.4177V63.25ZM42.4538 61.7C42.9072 61.7 43.2638 61.8467 43.5238 62.14C43.7905 62.4333 43.9238 62.8267 43.9238 63.32V67H42.3638V64C42.3638 63.76 42.3038 63.57 42.1838 63.43C42.0705 63.29 41.8972 63.22 41.6638 63.22C41.5172 63.22 41.3738 63.26 41.2338 63.34C41.0938 63.4133 40.9738 63.5133 40.8738 63.64V67H39.3138V64C39.3138 63.76 39.2538 63.57 39.1338 63.43C39.0205 63.29 38.8472 63.22 38.6138 63.22C38.4538 63.22 38.2972 63.2633 38.1438 63.35C37.9972 63.4367 37.8772 63.55 37.7838 63.69V67H36.2238V61.84H37.7838V62.4C37.9905 62.18 38.2305 62.01 38.5038 61.89C38.7838 61.7633 39.0805 61.7 39.3938 61.7C39.7138 61.7 39.9872 61.7733 40.2138 61.92C40.4405 62.0667 40.6105 62.27 40.7238 62.53C40.9238 62.27 41.1772 62.0667 41.4838 61.92C41.7905 61.7733 42.1138 61.7 42.4538 61.7ZM45.6834 61.04V59.5H47.3834V61.04H45.6834ZM45.6834 63.25H44.7234V61.84H47.3834V67H45.6834V63.25ZM50.6995 67C50.0928 67 49.6361 66.86 49.3295 66.58C49.0228 66.3 48.8695 65.9033 48.8695 65.39V63.25H48.0595V61.84H48.8695V60.17H50.5695V61.84H51.9895V63.25H50.5695V65.19C50.5695 65.4567 50.6928 65.59 50.9395 65.59H51.9895V67H50.6995ZM58.0854 64.4C58.0854 64.5267 58.0787 64.65 58.0654 64.77H54.2554C54.3554 65.4967 54.7587 65.86 55.4654 65.86C55.6921 65.86 55.8854 65.8267 56.0454 65.76C56.2121 65.6867 56.3354 65.5967 56.4154 65.49H57.9954C57.9021 65.7967 57.7354 66.0767 57.4954 66.33C57.2554 66.5833 56.9554 66.7833 56.5954 66.93C56.2421 67.07 55.8487 67.14 55.4154 67.14C54.8687 67.14 54.3854 67.0267 53.9654 66.8C53.5521 66.5667 53.2321 66.2433 53.0054 65.83C52.7787 65.4167 52.6654 64.9367 52.6654 64.39C52.6654 63.87 52.7787 63.4067 53.0054 63C53.2321 62.5933 53.5521 62.2767 53.9654 62.05C54.3787 61.8167 54.8554 61.7 55.3954 61.7C55.9621 61.7 56.4487 61.8167 56.8554 62.05C57.2621 62.2833 57.5687 62.6033 57.7754 63.01C57.9821 63.4167 58.0854 63.88 58.0854 64.4ZM55.3954 62.94C54.8154 62.94 54.4521 63.2133 54.3054 63.76H56.4354C56.3754 63.48 56.2587 63.2733 56.0854 63.14C55.9187 63.0067 55.6887 62.94 55.3954 62.94ZM64.1673 59.5V67H62.5173V66.56C62.1906 66.9467 61.7306 67.14 61.1373 67.14C60.6706 67.14 60.2639 67.0267 59.9173 66.8C59.5706 66.5733 59.3039 66.2567 59.1173 65.85C58.9306 65.4367 58.8373 64.9567 58.8373 64.41C58.8373 63.8767 58.9306 63.4067 59.1173 63C59.3039 62.5867 59.5673 62.2667 59.9073 62.04C60.2539 61.8133 60.6539 61.7 61.1073 61.7C61.6939 61.7 62.1639 61.8933 62.5173 62.28V59.5H64.1673ZM61.5373 65.63C61.7639 65.63 61.9606 65.5767 62.1273 65.47C62.2939 65.3633 62.4239 65.2167 62.5173 65.03V63.83C62.3039 63.4233 61.9739 63.22 61.5273 63.22C61.2073 63.22 60.9539 63.3233 60.7673 63.53C60.5873 63.7367 60.4973 64.03 60.4973 64.41C60.4973 64.8033 60.5873 65.1067 60.7673 65.32C60.9539 65.5267 61.2106 65.63 61.5373 65.63Z" fill="#4F008C"/>
</g>
<defs>
<clipPath id="clip0_357_1122">
<rect width="80" height="80" fill="white"/>
</clipPath>
</defs>
</svg>
