<svg width="24" height="24" viewBox="0 0 24 24" fill="none" xmlns="http://www.w3.org/2000/svg">
<path fill-rule="evenodd" clip-rule="evenodd" d="M6.04978 18.0002V19.4998H14.2317C14.6422 19.4998 14.9753 19.164 14.9753 18.75V18.0002H12.7439V16.5H14.9753V11.2502H16.463V18.75C16.463 19.3467 16.228 19.919 15.8095 20.341C15.391 20.7629 14.8235 21 14.2317 21H4.56201V5.25C4.56201 4.65326 4.7971 4.08097 5.21557 3.65901C5.63403 3.23705 6.20159 3 6.79339 3H11.2561V4.50019H6.79339C6.38281 4.50019 6.04978 4.836 6.04978 5.25V16.5H8.28115V18.0002H6.04978ZM11.2561 16.5H9.76892V18.0002H11.2561V16.5ZM19.438 9.75C19.438 6.02231 16.4407 3 12.7439 3V4.50019C14.1247 4.50019 15.449 5.05329 16.4253 6.03782C17.4017 7.02235 17.9503 8.35766 17.9503 9.75H19.438ZM12.7439 5.99981C13.7303 5.99981 14.6763 6.39492 15.3737 7.09822C16.0712 7.80151 16.463 8.75539 16.463 9.75H14.9753C14.9753 9.15326 14.7402 8.58097 14.3217 8.15901C13.9033 7.73705 13.3357 7.5 12.7439 7.5V5.99981Z" fill="#4F008C"/>
</svg>
