<?xml version="1.0" encoding="UTF-8"?>
<svg id="Layer_1" data-name="Layer 1" xmlns="http://www.w3.org/2000/svg" viewBox="0 0 100 100">
  <defs>
    <style>
      .cls-1 {
        fill: #ed1c24;
      }
    </style>
  </defs>
  <path d="M79.24,27.31l-17.14-16.74c-.29-.28-.67-.44-1.07-.44H27c-3.7,0-6.7,3.01-6.7,6.7v66.32c0,3.7,3.01,6.7,6.7,6.7h45.99c3.7,0,6.7-3.01,6.7-6.7V28.41c0-.41-.17-.81-.46-1.1ZM76.63,83.16c0,2.01-1.63,3.64-3.64,3.64H27c-2,0-3.64-1.63-3.64-3.64V16.84c0-2,1.63-3.64,3.64-3.64h33.4l16.23,15.85v54.1Z"/>
  <path class="cls-1" d="M43.91,40.37h-9.14c-2.52,0-4.57,2.05-4.57,4.57v30.44c0,2.52,2.05,4.57,4.57,4.57h30.44c2.52,0,4.57-2.05,4.57-4.57v-30.44c0-2.52-2.05-4.57-4.57-4.57h-21.31ZM45.45,43.44h9.1v9.1h-9.1v-9.1ZM33.28,44.94c0-.83.67-1.5,1.5-1.5h7.6v9.1h-9.1v-7.6ZM42.38,76.89h-7.6c-.83,0-1.5-.67-1.5-1.5v-7.6h9.1v9.1ZM54.55,76.89h-9.1v-9.1h9.1v9.1ZM66.72,75.38c0,.83-.67,1.5-1.5,1.5h-7.6v-10.64c0-.85-.69-1.53-1.53-1.53h-22.81v-9.1h33.45v19.77ZM57.62,43.44h7.6c.83,0,1.5.67,1.5,1.5v7.6h-9.1v-9.1Z"/>
</svg>