<svg id="My_Plan_-_Internet" data-name="My Plan - Internet" xmlns="http://www.w3.org/2000/svg" xmlns:xlink="http://www.w3.org/1999/xlink" width="32.714" height="30.158" viewBox="0 0 32.714 30.158">
  <defs>
    <linearGradient id="linear-gradient" x1="0.5" x2="0.5" y2="1" gradientUnits="objectBoundingBox">
      <stop offset="0" stop-color="#d12b8a"/>
      <stop offset="1" stop-color="#70489d"/>
    </linearGradient>
  </defs>
  <path id="Path_232" data-name="Path 232" d="M98.808,58.732A29.6,29.6,0,0,0,77.739,50h-.057l0,2.166h.053a27.645,27.645,0,0,1,27.634,27.687l2.166,0A29.6,29.6,0,0,0,98.808,58.732Z" transform="translate(-74.975 -49.851)" fill="url(#linear-gradient)"/>
  <path id="Path_232_-_Outline" data-name="Path 232 - Outline" d="M77.532,49.851h.321a29.847,29.847,0,0,1,29.837,29.894v.264L105.012,80V79.74a27.17,27.17,0,0,0-27.16-27.212h-.316Zm29.63,29.629a29.32,29.32,0,0,0-29.1-29.1l0,1.622a27.7,27.7,0,0,1,27.476,27.476Z" transform="translate(-74.975 -49.851)" fill="url(#linear-gradient)"/>
  <path id="Path_233" data-name="Path 233" d="M77.694,105.3v2.4a20.077,20.077,0,0,1,20.085,20.085h2.4A22.48,22.48,0,0,0,77.694,105.3Z" transform="translate(-74.985 -97.78)" fill="url(#linear-gradient)"/>
  <path id="Path_234" data-name="Path 234" d="M77.677,160.6l-.016,3.023a11.941,11.941,0,0,1,11.907,11.908l3.023-.018A14.965,14.965,0,0,0,77.677,160.6Z" transform="translate(-74.956 -145.518)" fill="url(#linear-gradient)"/>
  <path id="Path_235" data-name="Path 235" d="M50.538,213.037a1.834,1.834,0,1,0,2.594,0A1.834,1.834,0,0,0,50.538,213.037Z" transform="translate(-50.001 -186.162)" fill="url(#linear-gradient)"/>
</svg>
