<svg width="30" height="30" viewBox="0 0 30 30" fill="none" xmlns="http://www.w3.org/2000/svg">
<circle cx="15" cy="15" r="14.75" fill="#4F008C" stroke="#F3F3F1" stroke-width="0.5"/>
<mask id="mask0_2565_489" style="mask-type:luminance" maskUnits="userSpaceOnUse" x="3" y="11" width="24" height="9">
<path d="M27 11H3V19.2623H27V11Z" fill="white"/>
</mask>
<g mask="url(#mask0_2565_489)">
<path d="M22.8273 15.8812C22.1565 15.8812 21.8457 15.5376 21.8457 15.016V13.4114H21.2734V12.7395H21.8457V11.7025H22.6119V12.7395H23.615V13.4114H22.6119V14.9209C22.6065 14.9588 22.6099 14.9975 22.6218 15.0339C22.6336 15.0703 22.6537 15.1036 22.6804 15.1311C22.7071 15.1586 22.7398 15.1797 22.7759 15.1927C22.812 15.2057 22.8506 15.2104 22.8888 15.2063H23.615V15.8812H22.8273Z" fill="#FF6A39"/>
<path d="M25.0463 15.8812L24.0801 12.7396H24.8462L25.5231 15.194H25.5416L26.2093 12.7396H27.0001L26.0339 15.8812H25.0463Z" fill="#FF6A39"/>
<path d="M5.72309 19.2654C6.47127 19.299 7.20311 19.0403 7.76309 18.5444C7.94184 18.3674 8.0832 18.1564 8.17885 17.924C8.27449 17.6917 8.32249 17.4425 8.32001 17.1914C8.32265 16.9574 8.27827 16.7253 8.18951 16.5087C8.10071 16.2922 7.96934 16.0955 7.80307 15.9304C7.41108 15.5621 6.91668 15.3204 6.38463 15.237L5.39075 15.0437C4.97847 14.9639 4.7446 14.7584 4.7446 14.4761C4.7446 14.1018 5.10771 13.8441 5.68922 13.8441C6.01263 13.8324 6.3277 13.9481 6.56616 14.1662C6.70048 14.3129 6.78637 14.4971 6.8123 14.694L8.24309 14.3871C8.20564 13.9695 8.01631 13.58 7.71077 13.2918C7.15747 12.7811 6.42433 12.5088 5.67077 12.534C4.97725 12.5123 4.30084 12.751 3.7754 13.2029C3.58119 13.3789 3.42614 13.5935 3.32014 13.8328C3.21419 14.0722 3.15962 14.331 3.16001 14.5927C3.15277 14.8112 3.19027 15.0289 3.27014 15.2325C3.35001 15.4361 3.47064 15.6213 3.62463 15.777C4.00355 16.1252 4.47242 16.3611 4.97847 16.4581L5.95999 16.6913C6.44923 16.8078 6.67078 16.9981 6.67078 17.3049C6.67078 17.7037 6.30771 17.9369 5.71385 17.9369C5.5346 17.9473 5.35511 17.9216 5.18597 17.8616C5.01683 17.8015 4.86153 17.7082 4.72922 17.5871C4.567 17.4235 4.47439 17.2036 4.47077 16.9735L3 17.3079C3.04536 17.7385 3.24146 18.1394 3.55385 18.44C3.84181 18.7151 4.1821 18.9299 4.55469 19.0717C4.92724 19.2134 5.32454 19.2793 5.72309 19.2654ZM16.6185 19.2654C17.4321 19.2865 18.2209 18.9853 18.8123 18.4278C19.1831 18.0714 19.4509 17.622 19.5877 17.1269L18.0769 16.6268C17.9908 16.9431 17.7997 17.2209 17.5348 17.4148C17.2699 17.6087 16.9468 17.7073 16.6185 17.6945C16.1896 17.6972 15.777 17.5307 15.4708 17.2312C15.1465 16.8676 14.9775 16.3919 15 15.9058C14.9765 15.4185 15.1481 14.9417 15.4769 14.5804C15.6262 14.4332 15.8036 14.3174 15.9987 14.2399C16.1937 14.1625 16.4024 14.1249 16.6123 14.1294C16.7989 14.1214 16.985 14.1519 17.1592 14.219C17.3334 14.286 17.4918 14.3882 17.6246 14.5191C17.8074 14.7114 17.9404 14.9451 18.0123 15.2002L19.5508 14.6847C19.423 14.2056 19.174 13.7672 18.8277 13.4115C18.5265 13.126 18.1715 12.9029 17.7834 12.755C17.3952 12.607 16.9815 12.5371 16.5661 12.5494C16.134 12.5446 15.7052 12.6251 15.3044 12.7862C14.9036 12.9473 14.5387 13.1859 14.2308 13.4882C13.6039 14.1373 13.2608 15.0079 13.2769 15.9089C13.2711 16.3564 13.3546 16.8007 13.5226 17.2157C13.6905 17.6308 13.9397 18.0084 14.2554 18.3265C14.568 18.6302 14.9377 18.8695 15.3432 19.0306C15.7486 19.1917 16.182 19.2715 16.6185 19.2654ZM11.4031 19.2654C11.8861 19.2921 12.3641 19.1559 12.76 18.8788V17.489C12.5055 17.662 12.2034 17.752 11.8954 17.7467C11.6614 17.7646 11.4296 17.6909 11.2492 17.5411C11.1034 17.3595 11.0339 17.1285 11.0554 16.8968V11H9.35075V12.7396H12.76V14.3871H9.35075V17.3079C9.32742 17.8233 9.50872 18.3271 9.85538 18.7101C10.063 18.9012 10.3069 19.0488 10.5727 19.1442C10.8386 19.2396 11.121 19.2808 11.4031 19.2654Z" fill="white"/>
</g>
</svg>
