<?xml version="1.0" encoding="UTF-8" standalone="no"?><!DOCTYPE svg PUBLIC "-//W3C//DTD SVG 1.1//EN" "http://www.w3.org/Graphics/SVG/1.1/DTD/svg11.dtd"><svg width="204px" height="55px" version="1.1" xmlns="http://www.w3.org/2000/svg" xmlns:xlink="http://www.w3.org/1999/xlink" xml:space="preserve" xmlns:serif="http://www.serif.com/" style="fill-rule:evenodd;clip-rule:evenodd;stroke-linejoin:round;stroke-miterlimit:2;"><g id="Path_1" transform="matrix(1,0,0,1,-251.177,-226.468)"><g id="Group_1"><path id="Path_11" serif:id="Path_1" d="M408.446,277.569L408.443,277.568C408.254,277.585 408.042,277.585 407.865,277.585C405.859,277.676 403.898,276.955 402.429,275.585C401.11,274.155 400.442,272.24 400.586,270.3L400.586,239.022C400.772,239.003 400.96,238.996 401.147,239C403.159,238.903 405.128,239.625 406.6,241C407.922,242.434 408.591,244.355 408.446,246.3L408.446,277.569ZM409.162,231.426L409.162,231.443C409.162,233.99 407.067,236.085 404.52,236.085L404.515,236.085C401.968,236.084 399.872,233.987 399.872,231.44C399.872,228.892 401.969,226.795 404.517,226.795C407.06,226.795 409.154,228.883 409.162,231.426ZM385.613,262.413C385.613,256.177 384.104,252.235 381.504,249.664C379.172,247.381 376.01,246.14 372.748,246.227C365.496,246.227 360.654,251.33 360.654,258.793C360.654,266.384 365.484,270.548 370.976,270.548C376.121,270.548 379.311,267.372 380.421,261.597C381.69,263.418 382.387,265.577 382.421,267.797C382.421,273.166 377.794,277.747 370.094,277.747C360.103,277.747 352.403,270.24 352.403,258.99C352.403,247.541 360.726,238.751 372.726,238.751C378.984,238.751 384.386,241 388.001,244.887C391.51,248.674 393.481,253.538 393.481,260.768L393.481,277.568C393.298,277.585 393.092,277.585 392.909,277.585C390.899,277.675 388.936,276.954 387.462,275.585C386.138,274.158 385.467,272.241 385.613,270.3L385.613,262.413ZM447,267.241L447.002,267.242C447.129,267.242 447.224,267.142 447.224,266.942L447.224,239.157C447.391,239.145 447.507,239.145 447.662,239.145C449.632,239.062 451.554,239.779 452.987,241.133C454.306,242.573 454.975,244.494 454.836,246.441L454.836,270.667C454.936,272.548 454.33,274.401 453.136,275.859C452.01,277.013 450.448,277.641 448.836,277.586C446.394,277.586 444.545,276.547 442.168,273.46C439.764,270.372 427.209,253.95 423.9,249.65C423.822,249.533 423.761,249.489 423.661,249.489C423.528,249.489 423.439,249.6 423.439,249.8L423.439,277.568C423.291,277.582 423.143,277.588 422.995,277.585C421.027,277.666 419.108,276.943 417.681,275.585C416.357,274.158 415.689,272.241 415.838,270.3L415.838,246.074C415.735,244.193 416.339,242.34 417.532,240.882C418.655,239.727 420.214,239.095 421.824,239.144C424.279,239.144 426.139,240.161 428.515,243.253C430.761,246.207 441.119,259.745 446.761,267.091C446.811,267.177 446.901,267.233 447,267.241ZM323.315,270.141L340.993,270.14C344.364,270.14 346.163,270.607 347.551,271.889C348.803,273.184 349.451,274.95 349.333,276.748L349.333,277.02L320.871,277.02C317.757,277.02 315.84,276.42 314.557,275.326C313.436,274.366 312.787,272.964 312.78,271.489C312.78,269.074 313.624,267.375 317.871,263.966C321.546,261.028 336.295,249.129 338.821,247.08C339.021,246.93 339.099,246.836 339.099,246.697C339.099,246.535 338.927,246.441 338.61,246.441L320.742,246.441C317.938,246.441 315.862,245.53 314.762,243.953C314.059,242.758 313.712,241.386 313.762,240L313.762,239.564L340.974,239.564C344.074,239.564 345.992,240.153 347.274,241.241C348.394,242.208 349.041,243.615 349.046,245.095C349.046,247.519 348.157,249.185 343.921,252.595C341.484,254.599 325.508,267.487 323.093,269.442C322.952,269.527 322.855,269.668 322.826,269.83C322.826,270.036 323.004,270.141 323.315,270.141ZM294.935,247.058C294.935,242.526 291.449,239.096 286.473,239.478C275.916,240.288 274.553,252.297 281.425,253.065C288.611,253.865 291.183,246.265 291.325,245.842C291.348,246.357 291.732,256.813 281.069,256.813L280.967,256.814C276.419,256.814 272.675,253.07 272.675,248.522L272.677,248.361C272.677,242.544 278.335,236.761 286.317,236.451C290.788,236.278 293.734,237.334 296.042,239.642C300.742,244.342 299.391,253.163 295.584,257.518C289.542,264.43 281.049,266.186 273.136,262.638C265.223,259.09 262.387,248.817 267.183,240.221C268.946,237.06 275.352,230.015 286.361,230.015C300.337,230.015 307.424,239.922 306.144,251.56C305.163,260.477 299.744,266.936 297.236,269.66C286.204,281.65 269.993,284.04 259.777,277.804C254.047,274.375 250.843,267.876 251.612,261.242C252.14,266.192 254.814,270.668 258.921,273.48C267.271,279.175 281.234,279.957 291.321,268.859C281.179,276.435 269.327,276.321 261.235,271.049C253.809,266.211 251.767,256.549 255.404,247.002C253.579,255.518 256.511,263.412 262.951,267.526C272.99,273.939 287.615,270.251 296.831,259.926C299.933,256.459 301.67,251.978 301.715,247.326C301.615,240.104 296.584,233.62 286.423,233.62C275.992,233.62 268.823,241.683 268.823,248.394C268.823,255.844 273.936,260.094 280.605,260.094C287.204,260.102 294.935,255.941 294.935,247.058Z" style="fill:#fff;"/></g></g></svg>